<svg width="15" height="15" viewBox="0 0 15 15" fill="none" xmlns="http://www.w3.org/2000/svg">
<path fill-rule="evenodd" clip-rule="evenodd" d="M14.1956 2.54813C14.0198 2.33715 13.7997 2.16747 13.551 2.05113C13.3022 1.9348 13.0309 1.87466 12.7562 1.875H2.65125L2.625 1.65562C2.57128 1.19964 2.35212 0.779208 2.00906 0.474049C1.666 0.16889 1.22289 0.000213621 0.76375 0H0.625C0.45924 0 0.300268 0.065848 0.183058 0.183058C0.065848 0.300269 0 0.45924 0 0.625C0 0.79076 0.065848 0.949732 0.183058 1.06694C0.300268 1.18415 0.45924 1.25 0.625 1.25H0.76375C0.916833 1.25002 1.06459 1.30622 1.17898 1.40795C1.29338 1.50967 1.36646 1.64984 1.38437 1.80187L2.24437 9.11438C2.33366 9.87487 2.69905 10.5761 3.27119 11.085C3.84334 11.5939 4.58241 11.875 5.34812 11.875H11.875C12.0408 11.875 12.1997 11.8092 12.3169 11.6919C12.4342 11.5747 12.5 11.4158 12.5 11.25C12.5 11.0842 12.4342 10.9253 12.3169 10.8081C12.1997 10.6908 12.0408 10.625 11.875 10.625H5.34812C4.96128 10.6239 4.58425 10.5032 4.26871 10.2794C3.95317 10.0556 3.71457 9.73972 3.58562 9.375H11.0356C11.7683 9.37504 12.4777 9.11764 13.0399 8.64777C13.6021 8.1779 13.9813 7.52544 14.1112 6.80438L14.6019 4.08313C14.6508 3.81313 14.6398 3.53567 14.5696 3.2704C14.4994 3.00513 14.3717 2.75855 14.1956 2.54813ZM13.375 3.86125L12.8837 6.5825C12.8057 7.01562 12.5778 7.4075 12.2399 7.6895C11.902 7.9715 11.4757 8.12567 11.0356 8.125H3.38687L2.79875 3.125H12.7562C12.8481 3.12445 12.9389 3.14414 13.0222 3.18266C13.1055 3.22118 13.1794 3.27759 13.2385 3.34788C13.2975 3.41817 13.3404 3.50061 13.364 3.58934C13.3876 3.67806 13.3913 3.7709 13.375 3.86125Z" fill="#0C1A30"/>
<path d="M4.375 15C5.06536 15 5.625 14.4404 5.625 13.75C5.625 13.0596 5.06536 12.5 4.375 12.5C3.68464 12.5 3.125 13.0596 3.125 13.75C3.125 14.4404 3.68464 15 4.375 15Z" fill="#0C1A30"/>
<path d="M11.875 13.75C11.875 14.4404 11.3154 15 10.625 15C9.93464 15 9.375 14.4404 9.375 13.75C9.375 13.0596 9.93464 12.5 10.625 12.5C11.3154 12.5 11.875 13.0596 11.875 13.75Z" fill="#0C1A30"/>
</svg>
