<svg width="21" height="21" viewBox="0 0 21 21" fill="none" xmlns="http://www.w3.org/2000/svg">
<path d="M11.0062 0C11.5256 0.167168 11.8958 0.535678 12.2692 0.910777C14.9648 3.61634 17.6669 6.31532 20.3608 9.02254C20.5459 9.20823 20.7302 9.42481 20.8281 9.6628C21.3775 10.9964 20.5562 12.3544 19.1295 12.4124C19.0205 12.4169 18.9111 12.4128 18.7675 12.4128C18.7675 12.5018 18.7675 12.5804 18.7675 12.6586C18.7675 14.6721 18.7712 16.6855 18.7659 18.6985C18.763 19.7999 18.0642 20.6889 17.0122 20.9363C16.8279 20.9796 16.6334 20.9952 16.4434 20.9964C15.3761 21.0018 14.3092 20.9997 13.2419 20.9989C12.7784 20.9989 12.5325 20.7539 12.5321 20.2899C12.5308 18.708 12.5321 17.1261 12.5312 15.5441C12.5312 14.8129 12.1162 14.3954 11.3899 14.3937C10.8018 14.3925 10.2132 14.3921 9.6251 14.3937C8.9107 14.3958 8.49489 14.8145 8.49406 15.5334C8.49283 17.1018 8.49406 18.6697 8.49365 20.238C8.49365 20.7725 8.26621 20.9989 7.73195 20.9989C6.69223 20.9989 5.6525 21.0002 4.61277 20.9989C3.23538 20.9969 2.26146 20.0256 2.25941 18.647C2.25694 16.6612 2.25858 14.6749 2.25858 12.6891C2.25858 12.608 2.25858 12.5265 2.25858 12.4351C2.02415 12.4149 1.79836 12.4161 1.5812 12.3737C0.849113 12.2308 0.348169 11.7969 0.110858 11.0932C-0.124396 10.3965 0.0199644 9.75709 0.494586 9.19506C0.556279 9.12218 0.625786 9.05547 0.693237 8.98754C3.36823 6.30956 6.04446 3.63281 8.71657 0.952774C9.10276 0.565324 9.47786 0.169227 10.0212 0H11.0062ZM13.763 19.7662H14.0156C14.7748 19.7662 15.5357 19.7377 16.2932 19.774C17.0611 19.811 17.5559 19.3124 17.5456 18.533C17.5172 16.3351 17.5353 14.1368 17.5357 11.9389C17.5357 11.4078 17.7648 11.1813 18.3007 11.1809C18.5676 11.1809 18.8346 11.185 19.1011 11.1788C19.3873 11.1727 19.5963 11.0331 19.7188 10.7766C19.8459 10.5098 19.8044 10.2565 19.6222 10.0276C19.5671 9.95843 19.5013 9.89708 19.4383 9.83408C16.6716 7.06387 13.9049 4.29407 11.1378 1.52427C10.6891 1.07506 10.3391 1.07383 9.89325 1.52016C7.4165 3.99926 4.93975 6.47878 2.4634 8.9583C2.11998 9.30211 1.77286 9.64221 1.43519 9.99178C1.22544 10.2088 1.17444 10.4731 1.2933 10.7514C1.41134 11.0277 1.6322 11.1743 1.93614 11.1792C2.19607 11.1834 2.456 11.1805 2.71593 11.1809C3.26335 11.1813 3.48915 11.4061 3.48956 11.9521C3.48956 14.1916 3.48874 16.431 3.49038 18.6705C3.49079 19.3326 3.92223 19.7645 4.5807 19.7662C5.40861 19.7682 6.23611 19.767 7.06403 19.7662C7.12366 19.7662 7.18289 19.7596 7.26227 19.7546C7.26227 19.6624 7.26227 19.5821 7.26227 19.5014C7.26227 18.1591 7.25651 16.8168 7.26391 15.4746C7.27091 14.2035 8.14571 13.2503 9.41205 13.1766C10.1413 13.1342 10.875 13.1663 11.6071 13.1704C11.7292 13.1713 11.853 13.1906 11.9723 13.2174C13.0478 13.4587 13.7552 14.3423 13.761 15.468C13.768 16.8103 13.7626 18.1525 13.7626 19.4948C13.7626 19.5759 13.763 19.6566 13.763 19.7662Z" fill="#00A7BF"/>
</svg>
