<svg width="23" height="25" viewBox="0 0 23 25" fill="none" xmlns="http://www.w3.org/2000/svg">
<path d="M11.2658 24.884C10.6344 24.7821 10.1544 24.4276 9.72136 23.9789C9.37926 23.6245 9.01075 23.2965 8.66396 22.9461C8.43393 22.7141 8.17457 22.6405 7.85477 22.6923C7.2621 22.7883 6.66709 22.8749 6.07149 22.9491C4.75414 23.1133 3.80177 22.3802 3.58465 21.0507C3.49135 20.4795 3.38632 19.9095 3.29243 19.3383C3.24138 19.0286 3.08177 18.8143 2.80069 18.6706C2.2585 18.3938 1.72216 18.1059 1.18759 17.815C0.0756152 17.2097 -0.297 16.062 0.246959 14.9156C0.508084 14.3644 0.773902 13.8156 1.04911 13.2715C1.19581 12.9818 1.19405 12.7098 1.04794 12.4207C0.776249 11.8837 0.514538 11.3413 0.254588 10.7984C-0.303455 9.63254 0.0738548 8.48019 1.21106 7.8678C1.73331 7.58634 2.25263 7.30016 2.7825 7.0346C3.09175 6.87915 3.24783 6.6442 3.30064 6.30797C3.39571 5.70501 3.49546 5.10263 3.61634 4.50496C3.87394 3.23484 4.8715 2.55415 6.1466 2.75553C6.73985 2.84915 7.33545 2.92924 7.92929 3.01521C8.20332 3.05525 8.43393 2.9734 8.63227 2.7779C9.07824 2.33922 9.52713 1.90348 9.97897 1.47069C10.8926 0.59509 12.1032 0.59509 13.0174 1.46951C13.4581 1.89112 13.8994 2.31272 14.3295 2.74493C14.5665 2.98341 14.8324 3.05642 15.1598 3.00284C15.7524 2.90568 16.3469 2.81559 16.9431 2.7467C18.2416 2.59713 19.1705 3.29902 19.4047 4.59446C19.5074 5.16446 19.6095 5.73445 19.6975 6.30621C19.7491 6.64302 19.9052 6.87856 20.2144 7.03401C20.7373 7.29663 21.249 7.58104 21.7653 7.8572C22.9401 8.48608 23.3104 9.63549 22.7265 10.8397C22.4777 11.3531 22.2371 11.8713 21.9731 12.3771C21.8058 12.6974 21.8023 12.9913 21.9696 13.3128C22.243 13.8398 22.4971 14.3774 22.7518 14.9144C23.2969 16.0632 22.9266 17.2085 21.8141 17.8144C21.2865 18.1018 20.759 18.3897 20.2215 18.6588C19.9034 18.8184 19.7485 19.0604 19.6951 19.406C19.6036 20.0014 19.5027 20.5961 19.3835 21.1861C19.1259 22.4597 18.1337 23.141 16.858 22.9426C16.2647 22.8501 15.6691 22.7701 15.0747 22.6835C14.8007 22.6435 14.5689 22.7182 14.37 22.9149C14.0079 23.2717 13.6312 23.6139 13.2779 23.9795C12.8449 24.4276 12.3643 24.7827 11.7335 24.8846L11.2658 24.884ZM17.2394 21.5906C17.6519 21.603 17.9394 21.3839 18.0116 21.0077C18.1143 20.4701 18.2287 19.9325 18.2921 19.3895C18.4048 18.418 18.8748 17.7337 19.7691 17.3251C20.2438 17.1084 20.6956 16.8417 21.1563 16.5943C21.6204 16.3447 21.7366 15.9908 21.5089 15.5174C21.2443 14.968 20.9808 14.418 20.7068 13.8733C20.3617 13.1879 20.3617 12.5096 20.7068 11.8242C20.9738 11.2936 21.2284 10.7566 21.4872 10.222C21.7442 9.69143 21.6357 9.35991 21.1146 9.08198C20.5777 8.79581 20.0396 8.5114 19.5032 8.22405C18.8883 7.8943 18.4981 7.39438 18.3713 6.69955C18.2522 6.04535 18.1419 5.38939 18.0198 4.73637C17.9342 4.27767 17.6155 4.05097 17.1596 4.11456C16.5652 4.19818 15.9696 4.27944 15.3769 4.37483C14.5882 4.50202 13.9146 4.29651 13.3478 3.72416C12.9352 3.30727 12.5081 2.90509 12.0867 2.49703C11.6754 2.09898 11.3233 2.10133 10.9073 2.5041C10.4695 2.92865 10.0324 3.35437 9.59403 3.77834C9.09877 4.25706 8.51374 4.48258 7.82425 4.3919C7.17467 4.30593 6.52626 4.21349 5.87785 4.11868C5.3914 4.04802 5.07101 4.26354 4.97947 4.74638C4.88206 5.26161 4.76822 5.77508 4.71072 6.29502C4.60274 7.27838 4.12392 7.96555 3.2226 8.37714C2.75492 8.59089 2.30955 8.85351 1.85595 9.0967C1.37713 9.35402 1.2627 9.70202 1.49801 10.189C1.76324 10.7384 2.0273 11.2878 2.29957 11.833C2.63815 12.5108 2.63874 13.1832 2.30016 13.8616C2.03141 14.4003 1.77145 14.9433 1.50916 15.485C1.25918 16.0014 1.36833 16.3382 1.87473 16.6091C2.40461 16.8923 2.93331 17.1779 3.46612 17.4552C4.15502 17.8138 4.54113 18.3797 4.66084 19.1458C4.75414 19.7405 4.86269 20.3335 4.97419 20.9252C5.07159 21.4428 5.38377 21.6519 5.89839 21.5735C6.49223 21.4834 7.08724 21.4028 7.68108 21.315C8.45447 21.2002 9.10875 21.4305 9.66151 21.9816C10.0711 22.3903 10.4907 22.7889 10.9061 23.1917C11.3221 23.595 11.6748 23.5974 12.0856 23.1993C12.4957 22.8024 12.9147 22.4138 13.3126 22.0046C13.907 21.3934 14.6111 21.1843 15.445 21.3321C16.0511 21.4399 16.6643 21.5088 17.2388 21.5894L17.2394 21.5906Z" fill="#1B283D"/>
<path d="M16.788 8.27992C16.7258 8.41888 16.6713 8.56256 16.5991 8.69622C16.5633 8.76276 16.497 8.81399 16.4418 8.86934C13.4732 11.8489 10.504 14.8278 7.53602 17.8085C7.36643 17.9792 7.19039 18.1258 6.9322 18.1194C6.65817 18.1129 6.45162 17.9898 6.32604 17.7478C6.19578 17.497 6.21807 17.2485 6.38414 17.0182C6.43401 16.9488 6.4968 16.8887 6.55724 16.828C9.52584 13.8485 12.495 10.8696 15.463 7.88893C15.6326 7.71817 15.8087 7.57449 16.0669 7.57744C16.4465 7.58215 16.7499 7.88245 16.788 8.27992Z" fill="#1B283D"/>
<path d="M8.72195 11.6863C7.31247 11.6786 6.19052 10.5345 6.20167 9.11658C6.21223 7.72575 7.37056 6.58517 8.75599 6.59989C10.1455 6.61461 11.2728 7.76579 11.2669 9.16309C11.261 10.558 10.115 11.6939 8.72195 11.6863ZM8.7419 7.99661C8.1064 7.99249 7.59589 8.49241 7.58122 9.1313C7.56714 9.759 8.10464 10.3048 8.73545 10.3031C9.35921 10.3013 9.88029 9.77725 9.88264 9.14896C9.88498 8.51537 9.37506 8.00014 8.7419 7.99661Z" fill="#1B283D"/>
<path d="M14.2731 14.0117C15.6738 14.0153 16.7975 15.1452 16.7981 16.552C16.7993 17.9552 15.6439 19.1087 14.2485 19.0969C12.8607 19.0851 11.7276 17.9334 11.7329 16.539C11.7382 15.1411 12.8772 14.0082 14.2731 14.0117ZM14.2579 17.6996C14.8946 17.7037 15.4039 17.2062 15.4186 16.5655C15.4332 15.936 14.8975 15.3925 14.2649 15.3943C13.6394 15.3961 13.1195 15.9184 13.1172 16.5472C13.1148 17.1814 13.6241 17.6961 14.2579 17.6996Z" fill="#1B283D"/>
</svg>
