<svg width="21" height="18" viewBox="0 0 21 18" fill="none" xmlns="http://www.w3.org/2000/svg">
<path d="M21 5.78292V6.18515C20.9898 6.20937 20.9742 6.23253 20.9705 6.25781C20.8228 7.28708 20.279 8.04522 19.3421 8.52696C19.2176 8.59119 19.1907 8.667 19.1907 8.79336C19.194 11.6432 19.1934 14.4936 19.1934 17.344C19.1934 17.8147 19.0055 18 18.5245 18C13.1697 18 7.8155 18 2.46073 18C1.97647 18 1.79125 17.8178 1.79125 17.3461C1.79125 14.4957 1.79018 11.6459 1.79394 8.79546C1.79394 8.66016 1.76011 8.58276 1.62912 8.5159C0.755627 8.06997 0.230566 7.36185 0.0367554 6.41786C-0.0362592 6.06248 -0.00834189 5.73659 0.191911 5.39806C1.17439 3.74226 2.13485 2.07383 3.09048 0.402767C3.25584 0.113727 3.46952 -0.00262598 3.79969 0.00105941C4.76391 0.0115891 5.72814 0.00474481 6.69236 0.00474481C10.1799 0.00474481 13.6674 0.00790372 17.1555 6.4434e-06C17.513 -0.00104653 17.7347 0.126889 17.9098 0.433304C18.9314 2.22125 19.9681 4.00024 21 5.78292ZM2.83171 16.9723H4.64419C4.64419 16.866 4.64419 16.7791 4.64419 16.6922C4.64419 15.0159 4.64097 13.339 4.64527 11.6627C4.64849 10.5276 5.39152 9.80842 6.54955 9.80684C6.98012 9.80631 7.41284 9.78526 7.84127 9.81421C8.12205 9.83317 8.42055 9.87739 8.67073 9.99374C9.35417 10.3117 9.66932 10.8819 9.67093 11.6153C9.67522 13.3253 9.67254 15.0354 9.67254 16.7459V16.9697H18.1524V8.85706C17.0331 8.87759 16.1472 8.44272 15.4858 7.5598C14.8603 8.39007 14.0437 8.84653 12.999 8.84969C11.9489 8.85232 11.1285 8.3906 10.5042 7.57244C9.22586 9.3388 6.64995 9.21139 5.4946 7.56612C4.83532 8.44483 3.94894 8.87812 2.83117 8.85601L2.83171 16.9723ZM1.50349 5.21747H19.4823C19.4613 5.1743 19.4517 5.15008 19.4388 5.12797C18.6694 3.80017 17.8985 2.47343 17.1345 1.14248C17.0637 1.01928 16.9708 1.02455 16.8613 1.02455C12.6151 1.02455 8.36847 1.0256 4.12235 1.02139C3.97256 1.02139 3.89311 1.06719 3.81956 1.19513C3.08297 2.47922 2.33886 3.75964 1.59691 5.0411C1.56738 5.09217 1.54161 5.14534 1.50349 5.21747ZM8.63691 16.977C8.6412 16.9265 8.6455 16.9002 8.6455 16.8744C8.6455 15.1054 8.64765 13.3364 8.64443 11.5679C8.64389 11.1225 8.33895 10.8235 7.88583 10.8172C7.44183 10.8108 6.99784 10.8151 6.55331 10.8156C5.95899 10.8161 5.68358 11.0815 5.68304 11.658C5.68197 13.3601 5.68304 15.0617 5.68304 16.7638V16.9776L8.63691 16.977ZM4.93732 6.25886H1.06755C1.25814 7.19706 2.05217 7.83989 3.0019 7.83884C3.95163 7.83779 4.75264 7.18968 4.93732 6.25886ZM6.06315 6.25096C6.24514 7.27076 7.22386 7.95625 8.26647 7.82199C9.27794 7.69195 9.9254 6.78903 9.90124 6.25096H6.06315ZM11.0791 6.25307C11.1103 6.92855 11.8705 7.83621 12.9856 7.83989C14.1055 7.84358 14.8738 6.93329 14.907 6.25307H11.0791ZM16.0597 6.25675C16.1859 7.19232 17.0996 7.8878 18.1095 7.83568C19.0055 7.78935 19.8838 7.02016 19.9021 6.25675H16.0597Z" fill="black"/>
</svg>
