<svg width="28" height="19" viewBox="0 0 28 19" fill="none" xmlns="http://www.w3.org/2000/svg">
<path d="M21.9678 5.85711H22.8065M21.9678 9.09523H22.8065M2 1H26C26.5523 1 27 1.42284 27 1.94444V17.0556C27 17.5772 26.5523 18 26 18H2C1.44772 18 1 17.5772 1 17.0556V1.94444C1 1.42284 1.44772 1 2 1ZM6.16135 5.04767H16.8065C17.341 5.04767 17.7743 5.4826 17.7743 6.0191V13.7905C17.7743 14.327 17.341 14.762 16.8065 14.762H6.16135C5.62688 14.762 5.1936 14.327 5.1936 13.7905V6.0191C5.1936 5.4826 5.62688 5.04767 6.16135 5.04767Z" stroke="#00A7BF" stroke-width="1.5" stroke-linecap="round" stroke-linejoin="round"/>
</svg>
