<svg width="19" height="23" viewBox="0 0 19 23" fill="none" xmlns="http://www.w3.org/2000/svg">
<path d="M10.0924 0.95459C10.6715 1.04959 11.2399 1.18312 11.7654 1.45281C13.324 2.25238 14.2726 3.49898 14.5537 5.23429C14.5908 5.46493 14.594 5.69504 14.5945 5.92673C14.5951 6.81867 14.6004 7.7106 14.5908 8.60201C14.5887 8.7994 14.6385 8.86906 14.8485 8.86801C15.2919 8.8659 15.7357 8.8337 16.179 8.90284C17.7471 9.14825 18.9911 10.5753 18.9975 12.1507C19.0018 13.211 18.9996 14.2713 18.998 15.3316C18.9975 15.8589 18.6443 16.2225 18.139 16.223C17.6325 16.223 17.2778 15.8605 17.2767 15.3348C17.2751 14.3658 17.2799 13.3968 17.2746 12.4278C17.272 11.9924 17.186 11.5786 16.9018 11.2256C16.5338 10.7675 16.039 10.5801 15.4706 10.5796C11.4913 10.5753 7.512 10.5743 3.53272 10.5796C2.64554 10.5806 2.00973 11.0514 1.79761 11.8431C1.74936 12.0236 1.72815 12.2167 1.72762 12.4041C1.72284 14.6017 1.72231 16.7999 1.7255 18.9981C1.72709 19.8979 2.18472 20.5334 2.9844 20.7561C3.17424 20.8089 3.37204 20.8294 3.56931 20.8294C7.52048 20.8305 11.4717 20.8315 15.4228 20.8294C16.3397 20.8294 16.9829 20.3719 17.203 19.5675C17.247 19.4066 17.2587 19.2366 17.2762 19.0693C17.3271 18.5943 17.7137 18.2777 18.2185 18.3035C18.6475 18.3257 18.9917 18.6978 18.9986 19.1464C19.0256 21.0036 17.5079 22.5421 15.6371 22.5436C11.5448 22.5463 7.45261 22.5468 3.36037 22.5436C1.51603 22.5421 0.00524041 21.04 0.00258897 19.2065C-0.00112305 16.8754 -0.000592761 14.5437 0.00258897 12.2125C0.00524041 10.3648 1.51179 8.86906 3.36992 8.86273C3.63082 8.86167 3.89278 8.85217 4.15315 8.8659C4.34459 8.87645 4.41034 8.8184 4.40822 8.61943C4.39921 7.6858 4.39709 6.75164 4.40716 5.81748C4.42254 4.43894 4.96556 3.28576 5.95454 2.33577C6.7346 1.58581 7.67533 1.15409 8.7428 0.985201C8.78416 0.978867 8.82393 0.964618 8.86476 0.95459C9.27415 0.95459 9.68353 0.95459 10.0924 0.95459ZM9.49475 8.8622C10.5384 8.8622 11.5825 8.85745 12.6261 8.86642C12.8255 8.86801 12.8769 8.80362 12.8748 8.61362C12.8658 7.82777 12.8753 7.04139 12.8684 6.25553C12.8658 5.97581 12.8589 5.6924 12.8143 5.4169C12.5275 3.64623 10.8475 2.42919 8.97612 2.71102C7.28504 2.9654 6.14545 4.30805 6.12848 6.01645C6.11999 6.88675 6.13166 7.75705 6.12317 8.62734C6.12158 8.81259 6.17779 8.86748 6.36392 8.86642C7.40753 8.85851 8.45114 8.86273 9.49528 8.86273L9.49475 8.8622Z" fill="white"/>
<path d="M5.61833 15.5337C5.61833 16.0277 5.24713 16.394 4.74813 16.3919C4.26344 16.3898 3.89701 16.0214 3.89648 15.5364C3.89648 15.0424 4.26769 14.6761 4.76669 14.6782C5.25137 14.6803 5.6178 15.0487 5.61833 15.5337Z" fill="white"/>
<path d="M7.96381 14.6784C8.44107 14.6857 8.79902 15.0631 8.79371 15.555C8.78894 16.0426 8.40872 16.3994 7.9023 16.3915C7.41602 16.3841 7.06126 16.0004 7.0724 15.4938C7.08247 15.0225 7.46746 14.6704 7.96381 14.6784V14.6784Z" fill="white"/>
<path d="M11.1084 16.3914C10.6125 16.3914 10.245 16.0214 10.2477 15.5238C10.2503 15.0419 10.621 14.6777 11.1089 14.6777C11.6047 14.6777 11.9722 15.0477 11.9695 15.5454C11.9669 16.0272 11.5962 16.3914 11.1084 16.3914Z" fill="white"/>
<path d="M14.3273 16.3914C13.831 16.3914 13.4629 16.0219 13.4656 15.5253C13.4677 15.0429 13.8379 14.6782 14.3252 14.6782C14.8215 14.6782 15.1896 15.0477 15.1869 15.5443C15.1848 16.0267 14.8146 16.3914 14.3273 16.3914Z" fill="white"/>
</svg>
