<svg width="20" height="21" viewBox="0 0 20 21" fill="none" xmlns="http://www.w3.org/2000/svg">
<path d="M1 5.3846H18.5384M6.11537 5.3846V4.65383C6.11537 3.68478 6.50032 2.75541 7.18555 2.07018C7.87078 1.38496 8.80015 1 9.7692 1C10.7383 1 11.6676 1.38496 12.3529 2.07018C13.0381 2.75541 13.423 3.68478 13.423 4.65383V5.3846M3.1923 5.3846H16.3461V18.5384C16.3461 18.926 16.1921 19.2978 15.918 19.5719C15.6439 19.846 15.2722 19.9999 14.8846 19.9999H4.65383C4.26621 19.9999 3.89446 19.846 3.62037 19.5719C3.34628 19.2978 3.1923 18.926 3.1923 18.5384V5.3846Z" stroke="#8C8C8C" stroke-width="2" stroke-linecap="round" stroke-linejoin="round"/>
</svg>
