<svg width="20" height="20" viewBox="0 0 20 20" fill="none" xmlns="http://www.w3.org/2000/svg">
<path d="M16.4285 13.2144V17.0715C16.4285 17.4125 16.2931 17.7395 16.052 17.9807C15.8108 18.2218 15.4838 18.3572 15.1428 18.3572H2.92854C2.58754 18.3572 2.26052 18.2218 2.0194 17.9807C1.77828 17.7395 1.64282 17.4125 1.64282 17.0715V4.85724C1.64282 4.51625 1.77828 4.18922 2.0194 3.9481C2.26052 3.70698 2.58754 3.57152 2.92854 3.57152H6.78568M10.6428 12.5715L6.78568 13.2658L7.42854 9.35724L14.7957 2.01581C14.9152 1.8953 15.0574 1.79965 15.2141 1.73438C15.3708 1.6691 15.5388 1.6355 15.7085 1.6355C15.8783 1.6355 16.0463 1.6691 16.203 1.73438C16.3597 1.79965 16.5019 1.8953 16.6214 2.01581L17.9843 3.37867C18.1048 3.49819 18.2004 3.64039 18.2657 3.79707C18.331 3.95375 18.3646 4.1218 18.3646 4.29152C18.3646 4.46125 18.331 4.6293 18.2657 4.78598C18.2004 4.94266 18.1048 5.08486 17.9843 5.20438L10.6428 12.5715Z" stroke="#00A7BF" stroke-width="1.5" stroke-linecap="round" stroke-linejoin="round"/>
</svg>
