<svg width="20" height="21" viewBox="0 0 20 21" fill="none" xmlns="http://www.w3.org/2000/svg">
<path d="M4.27499 6.73967C4.27499 5.21741 4.8797 3.75751 5.9561 2.68111C7.0325 1.60471 8.4924 1 10.0147 1C11.5369 1 12.9968 1.60471 14.0732 2.68111C15.1496 3.75751 15.7543 5.21741 15.7543 6.73967M6.42721 11.0444H13.6018M16.1414 19.654H3.88726C3.48228 19.6565 3.08138 19.5732 2.71089 19.4096C2.3404 19.2461 2.00872 19.006 1.73766 18.7051C1.46659 18.4042 1.26228 18.0494 1.13814 17.6639C1.01401 17.2784 0.972866 16.871 1.01742 16.4685L1.97882 8.01682C2.01783 7.66423 2.18607 7.33859 2.45106 7.10275C2.71604 6.86691 3.059 6.73759 3.41373 6.73974H16.615C16.9697 6.73759 17.3127 6.86691 17.5776 7.10275C17.8426 7.33859 18.0109 7.66423 18.0499 8.01682L18.9826 16.4685C19.0269 16.8686 18.9865 17.2735 18.864 17.657C18.7416 18.0405 18.5399 18.394 18.2719 18.6944C18.004 18.9948 17.6758 19.2355 17.3088 19.4008C16.9417 19.5662 16.544 19.6524 16.1414 19.654Z" stroke="white" stroke-width="1.5" stroke-linecap="round" stroke-linejoin="round"/>
</svg>
