<svg width="132" height="41" viewBox="0 0 132 41" fill="none" xmlns="http://www.w3.org/2000/svg">
<path d="M0.103144 6.99288L4.01648 13.1587L7.99033 5.99774H0.647783C0.136763 5.99774 -0.172538 6.56255 0.103144 6.98616V6.99288Z" fill="#2FD9E4"/>
<path d="M8.46094 20.0777C8.70973 20.4341 9.30816 20.2996 9.50988 19.9096L16.765 6.65673C16.9331 6.34071 16.6843 5.97089 16.3347 5.99778H11.6884L6.01343 16.2383L8.46094 20.0777Z" fill="#01ACC2"/>
<path d="M10.8213 23.7692L12.4754 26.3646C12.7847 26.8487 13.4974 26.8286 13.7798 26.331L24.4104 7.49051L20.8669 6.00452L10.8213 23.7692Z" fill="#007999"/>
<path d="M18.5403 4.9421L25.9097 0L26.6023 8.68061L18.5403 4.9421Z" fill="#007999"/>
<path d="M29.3927 17.8521C29.4398 18.8943 29.6011 19.7953 29.8768 20.5551C30.1525 21.3149 30.5223 21.947 30.9796 22.4513C31.4368 22.9556 31.9949 23.3321 32.6336 23.5742C33.2724 23.823 33.9919 23.944 34.7786 23.944C35.5653 23.944 36.1839 23.8566 36.7353 23.6818C37.2866 23.5069 37.764 23.3187 38.1742 23.1102C38.5843 22.9018 38.9273 22.7068 39.2164 22.532C39.5055 22.3571 39.7677 22.2697 40.0098 22.2697C40.3191 22.2697 40.5612 22.3908 40.7293 22.6261L41.8253 24.0448C41.368 24.5828 40.857 25.04 40.2788 25.4098C39.7072 25.7796 39.0954 26.0822 38.4431 26.3175C37.7976 26.5529 37.132 26.721 36.4461 26.8218C35.7603 26.9227 35.1013 26.9765 34.4491 26.9765C33.1783 26.9765 32.0016 26.7613 30.919 26.3377C29.8365 25.9141 28.8951 25.2888 28.1017 24.4617C27.3016 23.6347 26.683 22.6126 26.2325 21.3889C25.7819 20.1651 25.5601 18.7598 25.5601 17.1663C25.5601 15.8954 25.7618 14.712 26.1585 13.6093C26.5619 12.5066 27.1335 11.5518 27.8865 10.7314C28.6329 9.91784 29.5474 9.27234 30.6165 8.80167C31.6856 8.33099 32.9026 8.08893 34.2541 8.08893C35.377 8.08893 36.4192 8.27047 37.3807 8.63357C38.3355 8.99666 39.1626 9.53458 39.8619 10.2406C40.5544 10.9466 41.0991 11.814 41.4891 12.836C41.8791 13.8581 42.0741 15.028 42.0741 16.3325C42.0741 16.9309 42.0068 17.3343 41.8791 17.5361C41.7446 17.7378 41.5092 17.8386 41.1596 17.8386H29.3927V17.8521ZM38.6112 15.4785C38.6112 14.833 38.5171 14.2279 38.3355 13.6698C38.1473 13.1117 37.8783 12.6276 37.5152 12.2107C37.1521 11.8005 36.7084 11.4778 36.1772 11.2425C35.646 11.0071 35.0274 10.8928 34.3348 10.8928C32.9362 10.8928 31.8335 11.2962 31.0266 12.0964C30.2198 12.8965 29.7155 14.0262 29.5003 15.4718H38.6112V15.4785Z" fill="black"/>
<path d="M49.6048 0.121094V26.7143H45.7385V0.121094H49.6048Z" fill="black"/>
<path d="M62.3064 8.0957C63.6579 8.0957 64.8816 8.31759 65.9776 8.76137C67.0736 9.20515 68.0083 9.83048 68.7815 10.6508C69.5548 11.4644 70.1532 12.4528 70.5701 13.6161C70.987 14.7793 71.1954 16.0837 71.1954 17.5361C71.1954 18.9885 70.987 20.2929 70.5701 21.4562C70.1532 22.6194 69.5548 23.6078 68.7815 24.4282C68.0083 25.2485 67.0736 25.8805 65.9776 26.3243C64.8816 26.7681 63.6579 26.99 62.3064 26.99C60.9548 26.99 59.7109 26.7681 58.6149 26.3243C57.5189 25.8805 56.5843 25.2485 55.8043 24.4282C55.0243 23.6078 54.4259 22.6194 54.009 21.4562C53.5921 20.2929 53.377 18.9885 53.377 17.5361C53.377 16.0837 53.5854 14.7793 54.009 13.6161C54.4259 12.4528 55.0243 11.4644 55.8043 10.6508C56.5843 9.8372 57.5189 9.20515 58.6149 8.76137C59.7109 8.31759 60.9414 8.0957 62.3064 8.0957ZM62.3064 23.9575C63.9604 23.9575 65.1909 23.4061 65.9978 22.2967C66.8047 21.1872 67.2081 19.6071 67.2081 17.5428C67.2081 15.4786 66.8047 13.8917 65.9978 12.7756C65.1909 11.6594 63.9604 11.0946 62.3064 11.0946C60.6523 11.0946 59.3814 11.6527 58.5678 12.7756C57.7542 13.8985 57.3441 15.4853 57.3441 17.5428C57.3441 19.6004 57.7542 21.1872 58.5678 22.2967C59.3814 23.4061 60.6254 23.9575 62.3064 23.9575Z" fill="black"/>
<path d="M87.8572 11.9821C87.7362 12.1368 87.6219 12.2578 87.5143 12.3385C87.4067 12.4192 87.252 12.4663 87.0436 12.4663C86.8352 12.4663 86.6267 12.3923 86.4048 12.2511C86.1829 12.1099 85.9207 11.9485 85.6114 11.7737C85.3088 11.5989 84.939 11.4442 84.5087 11.2963C84.0784 11.1484 83.5404 11.0811 82.8949 11.0811C82.0544 11.0811 81.3215 11.2291 80.6962 11.5316C80.0642 11.8342 79.5397 12.2578 79.1161 12.8159C78.6925 13.374 78.3764 14.0464 78.1613 14.8465C77.9528 15.6467 77.8453 16.541 77.8453 17.5361C77.8453 18.5313 77.9596 19.4793 78.1882 20.2862C78.4168 21.0864 78.7395 21.7655 79.1699 22.3168C79.5935 22.8682 80.1112 23.2851 80.7164 23.5742C81.3215 23.8633 82.0007 24.0045 82.7537 24.0045C83.5068 24.0045 84.0985 23.9171 84.5692 23.7356C85.0399 23.554 85.4231 23.359 85.7392 23.1439C86.0485 22.9287 86.3174 22.7337 86.5393 22.5522C86.7612 22.3706 86.9965 22.2832 87.252 22.2832C87.5613 22.2832 87.8034 22.4042 87.9715 22.6396L89.0675 24.0583C88.6237 24.5963 88.1329 25.0535 87.595 25.4233C87.0571 25.7931 86.4855 26.0957 85.8871 26.331C85.2887 26.5664 84.6633 26.7345 84.0178 26.8353C83.3723 26.9362 82.7201 26.99 82.0612 26.99C80.9248 26.99 79.8624 26.7748 78.874 26.3512C77.8856 25.9276 77.0249 25.309 76.2853 24.5021C75.5457 23.6952 74.9674 22.7068 74.5438 21.5369C74.1202 20.3669 73.905 19.0356 73.905 17.5361C73.905 16.1846 74.1 14.9272 74.4833 13.7707C74.8665 12.6142 75.4246 11.619 76.1643 10.7786C76.9039 9.93806 77.8116 9.28584 78.9076 8.80844C79.9969 8.33777 81.2543 8.0957 82.6798 8.0957C84.0111 8.0957 85.1811 8.31087 86.1897 8.7412C87.1983 9.17153 88.106 9.78341 88.8927 10.5768L87.8706 11.9754L87.8572 11.9821Z" fill="black"/>
<path d="M96.948 26.7143H92.7253V0.840576H96.948V26.7143Z" fill="#01ACC2"/>
<path d="M120.899 4.34375H112.83V26.7143H108.641V4.34375H100.559V0.840576H120.899V4.34375Z" fill="#01ACC2"/>
<path d="M127.367 27.0034C125.848 27.0034 124.678 26.5731 123.857 25.7192C123.037 24.8652 122.627 23.6549 122.627 22.1017V11.4308H120.616C120.401 11.4308 120.213 11.3635 120.058 11.2223C119.904 11.0879 119.823 10.8794 119.823 10.6037V9.04378L122.788 8.61345L123.635 3.31498C123.696 3.11326 123.797 2.94517 123.938 2.82413C124.079 2.69638 124.274 2.63586 124.51 2.63586H126.486V8.65379H131.57V11.4375H126.486V21.8394C126.486 22.4984 126.648 23.0027 126.971 23.3456C127.293 23.6952 127.724 23.8633 128.262 23.8633C128.564 23.8633 128.82 23.823 129.035 23.749C129.25 23.6684 129.438 23.5877 129.593 23.4935C129.748 23.4061 129.882 23.3187 129.996 23.2447C130.111 23.1641 130.218 23.1304 130.333 23.1304C130.548 23.1304 130.723 23.2515 130.85 23.4868L132 25.3762C131.402 25.9007 130.696 26.3041 129.882 26.5865C129.068 26.8689 128.228 27.0102 127.367 27.0102V27.0034Z" fill="black"/>
<path d="M3.16916 37.9096C3.48519 37.9096 3.77432 37.8558 4.02311 37.7482C4.27189 37.6406 4.48706 37.4927 4.66188 37.2977C4.8367 37.1027 4.97118 36.8741 5.05859 36.6052C5.15273 36.3362 5.19307 36.0403 5.19307 35.7176V31.031H6.22856V35.7176C6.22856 36.1614 6.15459 36.5715 6.01339 36.9548C5.87219 37.3381 5.67047 37.6608 5.40824 37.9432C5.146 38.2189 4.82325 38.4408 4.43999 38.5954C4.05673 38.7501 3.63312 38.8308 3.16244 38.8308C2.69176 38.8308 2.26143 38.7501 1.88489 38.5954C1.50163 38.4408 1.17888 38.2189 0.916644 37.9432C0.654411 37.6675 0.445969 37.3381 0.304766 36.9548C0.163563 36.5715 0.0895996 36.1614 0.0895996 35.7176V31.031H1.12509V35.7109C1.12509 36.0336 1.17215 36.3295 1.25957 36.5984C1.3537 36.8674 1.48146 37.096 1.65628 37.291C1.8311 37.486 2.04627 37.6339 2.29505 37.7482C2.55056 37.8558 2.83297 37.9096 3.15572 37.9096H3.16916Z" fill="black"/>
<path d="M9.53675 34.0769C9.65778 33.9425 9.77881 33.8214 9.91329 33.7138C10.0478 33.6063 10.189 33.5121 10.3369 33.4382C10.4848 33.3642 10.6462 33.3037 10.8076 33.2633C10.9757 33.223 11.1572 33.2028 11.3455 33.2028C11.6413 33.2028 11.9036 33.2499 12.1322 33.3507C12.3608 33.4516 12.5491 33.5861 12.7037 33.7676C12.8584 33.9492 12.9727 34.1643 13.0534 34.4199C13.1341 34.6754 13.1744 34.9578 13.1744 35.2671V38.7366H12.2129V35.2671C12.2129 34.8569 12.1187 34.5342 11.9305 34.3055C11.7422 34.0769 11.4531 33.9626 11.0698 33.9626C10.7874 33.9626 10.5252 34.0299 10.2764 34.1643C10.0276 34.2988 9.80571 34.4871 9.59727 34.7157V38.7299H8.63574V33.2835H9.214C9.34848 33.2835 9.43589 33.3507 9.46951 33.4852L9.54347 34.0769H9.53675Z" fill="black"/>
<path d="M16.4693 34.1307C16.6979 33.8483 16.9668 33.6197 17.2627 33.4448C17.5585 33.27 17.9082 33.1893 18.2982 33.1893C18.6142 33.1893 18.8966 33.2498 19.1521 33.3709C19.4076 33.4919 19.6228 33.6667 19.8043 33.9021C19.9859 34.1374 20.1204 34.4265 20.2212 34.7762C20.3154 35.1258 20.3691 35.5225 20.3691 35.973C20.3691 36.3765 20.3154 36.7463 20.2078 37.0959C20.1002 37.4456 19.9455 37.7414 19.7438 37.9969C19.5421 38.2525 19.2933 38.4475 19.0042 38.5954C18.7151 38.7433 18.3856 38.8105 18.0158 38.8105C17.6796 38.8105 17.3972 38.7568 17.1551 38.6424C16.913 38.5281 16.7046 38.3735 16.523 38.1718V40.5789H15.5615V33.2835H16.1398C16.2743 33.2835 16.3617 33.3507 16.3953 33.4852L16.4827 34.1307H16.4693ZM16.5163 37.4254C16.6911 37.6608 16.8861 37.8289 17.0946 37.923C17.303 38.0171 17.5384 38.0709 17.7939 38.0709C18.3049 38.0709 18.6949 37.8894 18.9638 37.5263C19.2395 37.1632 19.374 36.6454 19.374 35.9798C19.374 35.6234 19.3404 35.3208 19.2799 35.0653C19.2193 34.8098 19.1252 34.6014 19.0109 34.44C18.8899 34.2786 18.7487 34.1576 18.5739 34.0836C18.399 34.0097 18.204 33.9693 17.9889 33.9693C17.6796 33.9693 17.4039 34.0433 17.1685 34.1845C16.9332 34.3257 16.718 34.5274 16.523 34.7896V37.4254H16.5163Z" fill="black"/>
<path d="M23.4082 34.3795C23.583 34.0097 23.7915 33.7138 24.0403 33.5054C24.2891 33.2969 24.5984 33.1893 24.9615 33.1893C25.0758 33.1893 25.1833 33.2028 25.2909 33.2297C25.3985 33.2566 25.4926 33.2969 25.5733 33.3507L25.5061 34.0634C25.4859 34.1509 25.4321 34.1979 25.3447 34.1979C25.2909 34.1979 25.2237 34.1845 25.1228 34.1643C25.0287 34.1441 24.9144 34.1307 24.7934 34.1307C24.6185 34.1307 24.4706 34.1576 24.3361 34.2046C24.2016 34.2584 24.0806 34.3324 23.973 34.4265C23.8654 34.5274 23.7713 34.6484 23.6906 34.7896C23.6032 34.9376 23.5293 35.0989 23.462 35.2872V38.7299H22.5005V33.2835H23.0519C23.1527 33.2835 23.2267 33.3036 23.267 33.344C23.3074 33.3843 23.3343 33.4516 23.3477 33.5457L23.4149 34.3727L23.4082 34.3795Z" fill="black"/>
<path d="M31.5308 37.9768C31.4097 38.118 31.2685 38.2458 31.1072 38.3533C30.9391 38.4609 30.7642 38.5483 30.576 38.6156C30.3877 38.6828 30.1927 38.7366 29.991 38.7702C29.7893 38.8039 29.5943 38.824 29.3926 38.824C29.016 38.824 28.6664 38.7635 28.3504 38.6358C28.0343 38.508 27.7586 38.3197 27.53 38.0777C27.3014 37.8356 27.1199 37.5263 26.9921 37.1632C26.8644 36.8001 26.7971 36.3832 26.7971 35.9126C26.7971 35.5293 26.8576 35.1797 26.9719 34.8502C27.0863 34.5207 27.2543 34.2316 27.4762 33.9895C27.6981 33.7474 27.9604 33.5592 28.2764 33.418C28.5924 33.2768 28.9488 33.2095 29.3388 33.2095C29.6682 33.2095 29.9641 33.2633 30.2465 33.3709C30.5222 33.4785 30.7642 33.6399 30.966 33.8416C31.1677 34.05 31.3291 34.3055 31.4434 34.6081C31.5577 34.9107 31.6182 35.2536 31.6182 35.6436C31.6182 35.7915 31.6047 35.8924 31.5711 35.9462C31.5375 36 31.477 36.0201 31.3896 36.0201H27.7452C27.7586 36.3631 27.8057 36.6656 27.8864 36.9211C27.9671 37.1767 28.0881 37.3851 28.236 37.5599C28.384 37.728 28.5655 37.8558 28.774 37.9432C28.9824 38.0306 29.2177 38.0709 29.4733 38.0709C29.7153 38.0709 29.9238 38.044 30.0919 37.9903C30.26 37.9365 30.4146 37.8759 30.5424 37.8087C30.6701 37.7415 30.771 37.6877 30.8584 37.6272C30.9458 37.5666 31.013 37.5465 31.0735 37.5465C31.1542 37.5465 31.2147 37.5734 31.2551 37.6406L31.5241 37.9903L31.5308 37.9768ZM30.7575 35.4217C30.7575 35.1998 30.7239 34.9981 30.6634 34.8098C30.6029 34.6283 30.5087 34.4669 30.3877 34.3324C30.2667 34.198 30.1187 34.0971 29.9506 34.0231C29.7758 33.9492 29.5808 33.9155 29.3657 33.9155C28.9084 33.9155 28.5453 34.05 28.2764 34.319C28.0074 34.5879 27.8461 34.9578 27.7788 35.4284H30.7575V35.4217Z" fill="black"/>
<path d="M37.4949 34.2585C37.468 34.2988 37.4411 34.3257 37.4075 34.3526C37.3806 34.3728 37.3402 34.3862 37.2865 34.3862C37.2327 34.3862 37.1721 34.3661 37.1116 34.319C37.0444 34.2719 36.9704 34.2248 36.8696 34.1711C36.7687 34.1173 36.6611 34.0702 36.5199 34.0231C36.3787 33.9761 36.2106 33.9559 36.0089 33.9559C35.7399 33.9559 35.5046 34.003 35.2962 34.0971C35.0944 34.1912 34.9196 34.3324 34.7851 34.5073C34.6507 34.6821 34.5431 34.904 34.4758 35.1595C34.4086 35.415 34.3683 35.6974 34.3683 36.0134C34.3683 36.3294 34.4086 36.6387 34.4826 36.8943C34.5565 37.1498 34.6641 37.3649 34.8053 37.5398C34.9465 37.7146 35.1079 37.8491 35.3029 37.9365C35.4979 38.0306 35.7198 38.0709 35.9618 38.0709C36.2039 38.0709 36.3854 38.044 36.5401 37.9903C36.688 37.9365 36.8158 37.8759 36.9166 37.802C37.0175 37.7347 37.0982 37.6742 37.1654 37.6137C37.2327 37.5532 37.2999 37.533 37.3604 37.533C37.4411 37.533 37.5016 37.5599 37.542 37.6272L37.8109 37.9768C37.6899 38.1247 37.5554 38.2525 37.4075 38.3533C37.2596 38.4609 37.0982 38.5416 36.9234 38.6156C36.7485 38.6828 36.567 38.7366 36.3787 38.7702C36.1904 38.8039 35.9955 38.8173 35.8005 38.8173C35.4575 38.8173 35.1415 38.7568 34.8524 38.629C34.5633 38.5013 34.3077 38.3197 34.0926 38.0844C33.8774 37.8491 33.7093 37.5532 33.5883 37.2036C33.4673 36.8539 33.4067 36.4572 33.4067 36.0134C33.4067 35.61 33.4605 35.2334 33.5748 34.8905C33.6891 34.5476 33.8505 34.2517 34.0724 34.003C34.2876 33.7542 34.5565 33.5592 34.8726 33.418C35.1886 33.2768 35.5517 33.2095 35.9686 33.2095C36.3518 33.2095 36.688 33.27 36.9839 33.3978C37.2797 33.5256 37.5352 33.6937 37.7639 33.9223L37.5083 34.2652L37.4949 34.2585Z" fill="black"/>
<path d="M44.0777 37.9768C43.9566 38.118 43.8154 38.2458 43.654 38.3533C43.4859 38.4609 43.3111 38.5483 43.1228 38.6156C42.9346 38.6828 42.7396 38.7366 42.5379 38.7702C42.3361 38.8039 42.1412 38.824 41.9394 38.824C41.5629 38.824 41.2133 38.7635 40.8972 38.6358C40.5812 38.508 40.3055 38.3197 40.0769 38.0777C39.8483 37.8356 39.6667 37.5263 39.539 37.1632C39.4112 36.8001 39.344 36.3832 39.344 35.9126C39.344 35.5293 39.4045 35.1797 39.5188 34.8502C39.6331 34.5207 39.8012 34.2316 40.0231 33.9895C40.245 33.7474 40.5072 33.5592 40.8233 33.418C41.1393 33.2768 41.4957 33.2095 41.8856 33.2095C42.2151 33.2095 42.511 33.2633 42.7934 33.3709C43.0691 33.4785 43.3111 33.6399 43.5128 33.8416C43.7146 34.05 43.8759 34.3055 43.9902 34.6081C44.1045 34.9107 44.1651 35.2536 44.1651 35.6436C44.1651 35.7915 44.1516 35.8924 44.118 35.9462C44.0844 36 44.0239 36.0201 43.9364 36.0201H40.2921C40.3055 36.3631 40.3526 36.6656 40.4333 36.9211C40.514 37.1767 40.635 37.3851 40.7829 37.5599C40.9308 37.728 41.1124 37.8558 41.3208 37.9432C41.5293 38.0306 41.7646 38.0709 42.0201 38.0709C42.2622 38.0709 42.4706 38.044 42.6387 37.9903C42.8068 37.9365 42.9615 37.8759 43.0892 37.8087C43.217 37.7415 43.3178 37.6877 43.4053 37.6272C43.4927 37.5666 43.5599 37.5465 43.6204 37.5465C43.7011 37.5465 43.7616 37.5734 43.802 37.6406L44.0709 37.9903L44.0777 37.9768ZM43.3044 35.4217C43.3044 35.1998 43.2708 34.9981 43.2103 34.8098C43.1497 34.6283 43.0556 34.4669 42.9346 34.3324C42.8135 34.198 42.6656 34.0971 42.4975 34.0231C42.3227 33.9492 42.1277 33.9155 41.9125 33.9155C41.4553 33.9155 41.0922 34.05 40.8233 34.319C40.5543 34.5879 40.3929 34.9578 40.3257 35.4284H43.3044V35.4217Z" fill="black"/>
<path d="M50.7612 30.8158V38.7366H50.1897C50.0552 38.7366 49.9678 38.6694 49.9342 38.5349L49.8468 37.8759C49.6114 38.1584 49.3492 38.3802 49.0534 38.5551C48.7575 38.7299 48.4079 38.8106 48.0179 38.8106C47.7086 38.8106 47.4194 38.7501 47.1707 38.629C46.9151 38.508 46.7 38.3332 46.5184 38.0978C46.3369 37.8625 46.2024 37.5734 46.1015 37.2237C46.0074 36.8741 45.9536 36.4774 45.9536 36.0269C45.9536 35.6234 46.0074 35.2536 46.115 34.904C46.2226 34.5543 46.3772 34.2585 46.5789 34.003C46.7807 33.7474 47.0294 33.5457 47.3186 33.4045C47.6077 33.2633 47.9372 33.1894 48.307 33.1894C48.6432 33.1894 48.9256 33.2431 49.1677 33.3575C49.4097 33.4718 49.6182 33.6264 49.8064 33.8281V30.8091H50.7612V30.8158ZM49.8064 34.5879C49.6249 34.3459 49.4366 34.1778 49.2282 34.0836C49.0197 33.9895 48.7844 33.9424 48.5289 33.9424C48.0246 33.9424 47.6346 34.124 47.3589 34.4871C47.0832 34.8502 46.9488 35.3679 46.9488 36.0336C46.9488 36.39 46.9757 36.6925 47.0429 36.948C47.1101 37.2036 47.1908 37.412 47.3119 37.5734C47.4329 37.7347 47.5741 37.8558 47.7489 37.9297C47.9237 38.0037 48.1187 38.044 48.3339 38.044C48.6499 38.044 48.9256 37.9701 49.1609 37.8289C49.3963 37.6877 49.6114 37.486 49.8064 37.2237V34.5947V34.5879Z" fill="black"/>
<path d="M57.613 37.9768C57.492 38.118 57.3508 38.2458 57.1894 38.3533C57.0213 38.4609 56.8465 38.5483 56.6583 38.6156C56.47 38.6828 56.275 38.7366 56.0733 38.7702C55.8715 38.8039 55.6766 38.824 55.4748 38.824C55.0983 38.824 54.7486 38.7635 54.4326 38.6358C54.1166 38.508 53.8409 38.3197 53.6123 38.0777C53.3837 37.8356 53.2021 37.5263 53.0744 37.1632C52.9466 36.8001 52.8794 36.3832 52.8794 35.9126C52.8794 35.5293 52.9399 35.1797 53.0542 34.8502C53.1685 34.5207 53.3366 34.2316 53.5585 33.9895C53.7804 33.7474 54.0426 33.5592 54.3587 33.418C54.6747 33.2768 55.0311 33.2095 55.421 33.2095C55.7505 33.2095 56.0464 33.2633 56.3288 33.3709C56.6045 33.4785 56.8465 33.6399 57.0482 33.8416C57.25 34.05 57.4113 34.3055 57.5256 34.6081C57.6399 34.9107 57.7005 35.2536 57.7005 35.6436C57.7005 35.7915 57.687 35.8924 57.6534 35.9462C57.6198 36 57.5593 36.0201 57.4718 36.0201H53.8275C53.8409 36.3631 53.888 36.6656 53.9687 36.9211C54.0494 37.1767 54.1704 37.3851 54.3183 37.5599C54.4662 37.728 54.6478 37.8558 54.8562 37.9432C55.0647 38.0306 55.3 38.0709 55.5555 38.0709C55.7976 38.0709 56.006 38.044 56.1741 37.9903C56.3422 37.9365 56.4969 37.8759 56.6246 37.8087C56.7524 37.7415 56.8532 37.6877 56.9407 37.6272C57.0281 37.5666 57.0953 37.5465 57.1558 37.5465C57.2365 37.5465 57.297 37.5734 57.3374 37.6406L57.6063 37.9903L57.613 37.9768ZM56.8398 35.4217C56.8398 35.1998 56.8062 34.9981 56.7457 34.8098C56.6851 34.6283 56.591 34.4669 56.47 34.3324C56.349 34.198 56.201 34.0971 56.0329 34.0231C55.8581 33.9492 55.6631 33.9155 55.4479 33.9155C54.9907 33.9155 54.6276 34.05 54.3587 34.319C54.0897 34.5879 53.9283 34.9578 53.8611 35.4284H56.8398V35.4217Z" fill="black"/>
<path d="M60.6859 34.0769C60.8069 33.9425 60.928 33.8214 61.0625 33.7138C61.1969 33.6063 61.3381 33.5121 61.4861 33.4382C61.634 33.3642 61.7954 33.3037 61.9567 33.2633C62.1248 33.223 62.3064 33.2028 62.4947 33.2028C62.7905 33.2028 63.0527 33.2499 63.2814 33.3507C63.51 33.4516 63.6982 33.5861 63.8529 33.7676C64.0075 33.9492 64.1219 34.1643 64.2025 34.4199C64.2832 34.6754 64.3236 34.9578 64.3236 35.2671V38.7366H63.362V35.2671C63.362 34.8569 63.2679 34.5342 63.0796 34.3055C62.8914 34.0769 62.6022 33.9626 62.219 33.9626C61.9366 33.9626 61.6743 34.0299 61.4256 34.1643C61.1768 34.2988 60.9549 34.4871 60.7464 34.7157V38.7299H59.7849V33.2835H60.3632C60.4976 33.2835 60.5851 33.3507 60.6187 33.4852L60.6926 34.0769H60.6859Z" fill="black"/>
<path d="M68.2971 38.824C67.8668 38.824 67.5373 38.703 67.302 38.4609C67.0734 38.2189 66.9524 37.8759 66.9524 37.4254V34.0904H66.2934C66.2329 34.0904 66.1858 34.0702 66.1455 34.0366C66.1051 34.0029 66.085 33.9492 66.085 33.8752V33.4919L66.9792 33.3776L67.2011 31.6966C67.2146 31.6428 67.2348 31.5958 67.2751 31.5622C67.3154 31.5285 67.3625 31.5084 67.423 31.5084H67.9071V33.3843H69.4806V34.0769H67.9071V37.3447C67.9071 37.5734 67.9609 37.7415 68.0752 37.8558C68.1896 37.9701 68.3308 38.0239 68.5056 38.0239C68.6064 38.0239 68.6938 38.0104 68.7678 37.9835C68.8418 37.9566 68.9023 37.9297 68.9561 37.8961C69.0099 37.8625 69.0569 37.8356 69.0906 37.8087C69.1309 37.7818 69.1645 37.7683 69.1914 37.7683C69.2385 37.7683 69.2856 37.7952 69.3259 37.8625L69.6083 38.3197C69.4402 38.4744 69.2452 38.5954 69.0099 38.6828C68.7745 38.7702 68.5392 38.8173 68.2904 38.8173L68.2971 38.824Z" fill="black"/>
<path d="M75.7944 37.9768C75.6734 38.118 75.5322 38.2458 75.3708 38.3533C75.2027 38.4609 75.0279 38.5483 74.8396 38.6156C74.6514 38.6828 74.4564 38.7366 74.2547 38.7702C74.0529 38.8039 73.858 38.824 73.6562 38.824C73.2797 38.824 72.93 38.7635 72.614 38.6358C72.298 38.508 72.0223 38.3197 71.7937 38.0777C71.5651 37.8356 71.3835 37.5263 71.2558 37.1632C71.128 36.8001 71.0608 36.3832 71.0608 35.9126C71.0608 35.5293 71.1213 35.1797 71.2356 34.8502C71.3499 34.5207 71.518 34.2316 71.7399 33.9895C71.9618 33.7474 72.224 33.5592 72.5401 33.418C72.8561 33.2768 73.2125 33.2095 73.6024 33.2095C73.9319 33.2095 74.2278 33.2633 74.5102 33.3709C74.7859 33.4785 75.0279 33.6399 75.2296 33.8416C75.4314 34.05 75.5927 34.3055 75.707 34.6081C75.8213 34.9107 75.8819 35.2536 75.8819 35.6436C75.8819 35.7915 75.8684 35.8924 75.8348 35.9462C75.8012 36 75.7407 36.0201 75.6532 36.0201H72.0089C72.0223 36.3631 72.0694 36.6656 72.1501 36.9211C72.2308 37.1767 72.3518 37.3851 72.4997 37.5599C72.6476 37.728 72.8292 37.8558 73.0376 37.9432C73.2461 38.0306 73.4814 38.0709 73.7369 38.0709C73.979 38.0709 74.1874 38.044 74.3555 37.9903C74.5236 37.9365 74.6783 37.8759 74.806 37.8087C74.9338 37.7415 75.0346 37.6877 75.1221 37.6272C75.2095 37.5666 75.2767 37.5465 75.3372 37.5465C75.4179 37.5465 75.4784 37.5734 75.5188 37.6406L75.7877 37.9903L75.7944 37.9768ZM75.0212 35.4217C75.0212 35.1998 74.9876 34.9981 74.9271 34.8098C74.8665 34.6283 74.7724 34.4669 74.6514 34.3324C74.5303 34.198 74.3824 34.0971 74.2143 34.0231C74.0395 33.9492 73.8445 33.9155 73.6293 33.9155C73.1721 33.9155 72.809 34.05 72.5401 34.319C72.2711 34.5879 72.1097 34.9578 72.0425 35.4284H75.0212V35.4217Z" fill="black"/>
<path d="M82.478 30.8158V38.7366H81.9065C81.772 38.7366 81.6846 38.6694 81.651 38.5349L81.5636 37.8759C81.3282 38.1584 81.066 38.3802 80.7701 38.5551C80.4743 38.7299 80.1246 38.8106 79.7347 38.8106C79.4254 38.8106 79.1362 38.7501 78.8874 38.629C78.6319 38.508 78.4168 38.3332 78.2352 38.0978C78.0537 37.8625 77.9192 37.5734 77.8183 37.2237C77.7242 36.8741 77.6704 36.4774 77.6704 36.0269C77.6704 35.6234 77.7242 35.2536 77.8318 34.904C77.9394 34.5543 78.094 34.2585 78.2957 34.003C78.4975 33.7474 78.7462 33.5457 79.0354 33.4045C79.3245 33.2633 79.654 33.1894 80.0238 33.1894C80.36 33.1894 80.6424 33.2431 80.8845 33.3575C81.1265 33.4718 81.335 33.6264 81.5232 33.8281V30.8091H82.478V30.8158ZM81.5232 34.5879C81.3417 34.3459 81.1534 34.1778 80.945 34.0836C80.7365 33.9895 80.5012 33.9424 80.2457 33.9424C79.7414 33.9424 79.3514 34.124 79.0757 34.4871C78.8 34.8502 78.6656 35.3679 78.6656 36.0336C78.6656 36.39 78.6924 36.6925 78.7597 36.948C78.8269 37.2036 78.9076 37.412 79.0286 37.5734C79.1497 37.7347 79.2909 37.8558 79.4657 37.9297C79.6405 38.0037 79.8355 38.044 80.0507 38.044C80.3667 38.044 80.6424 37.9701 80.8777 37.8289C81.1131 37.6877 81.3282 37.486 81.5232 37.2237V34.5947V34.5879Z" fill="black"/>
<path d="M94.6821 31.031L91.542 38.7366H90.6074L87.4673 31.031H88.3011C88.3952 31.031 88.4692 31.0511 88.5297 31.0982C88.5902 31.1453 88.6305 31.2058 88.6574 31.273L90.8293 36.7127C90.8763 36.8337 90.9234 36.9682 90.9637 37.1094C91.0108 37.2506 91.0511 37.4053 91.0848 37.5599C91.1184 37.4053 91.1587 37.2506 91.1991 37.1094C91.2394 36.9682 91.2798 36.8337 91.3268 36.7127L93.4919 31.273C93.5121 31.2125 93.5524 31.1587 93.6197 31.1049C93.6802 31.0511 93.7609 31.0242 93.8483 31.0242H94.6821V31.031Z" fill="black"/>
<path d="M100.001 37.9768C99.8797 38.118 99.7385 38.2458 99.5771 38.3533C99.409 38.4609 99.2342 38.5483 99.046 38.6156C98.8577 38.6828 98.6627 38.7366 98.461 38.7702C98.2592 38.8039 98.0642 38.824 97.8625 38.824C97.486 38.824 97.1364 38.7635 96.8203 38.6358C96.5043 38.508 96.2286 38.3197 96 38.0777C95.7714 37.8356 95.5898 37.5263 95.4621 37.1632C95.3343 36.8001 95.2671 36.3832 95.2671 35.9126C95.2671 35.5293 95.3276 35.1797 95.4419 34.8502C95.5562 34.5207 95.7243 34.2316 95.9462 33.9895C96.1681 33.7474 96.4303 33.5592 96.7464 33.418C97.0624 33.2768 97.4188 33.2095 97.8087 33.2095C98.1382 33.2095 98.4341 33.2633 98.7165 33.3709C98.9922 33.4785 99.2342 33.6399 99.4359 33.8416C99.6377 34.05 99.799 34.3055 99.9133 34.6081C100.028 34.9107 100.088 35.2536 100.088 35.6436C100.088 35.7915 100.075 35.8924 100.041 35.9462C100.007 36 99.947 36.0201 99.8595 36.0201H96.2152C96.2286 36.3631 96.2757 36.6656 96.3564 36.9211C96.4371 37.1767 96.5581 37.3851 96.706 37.5599C96.8539 37.728 97.0355 37.8558 97.2439 37.9432C97.4524 38.0306 97.6877 38.0709 97.9432 38.0709C98.1853 38.0709 98.3937 38.044 98.5618 37.9903C98.7299 37.9365 98.8846 37.8759 99.0123 37.8087C99.1401 37.7415 99.2409 37.6877 99.3284 37.6272C99.4158 37.5666 99.483 37.5465 99.5435 37.5465C99.6242 37.5465 99.6847 37.5734 99.7251 37.6406L99.994 37.9903L100.001 37.9768ZM99.2275 35.4217C99.2275 35.1998 99.1939 34.9981 99.1334 34.8098C99.0728 34.6283 98.9787 34.4669 98.8577 34.3324C98.7367 34.198 98.5887 34.0971 98.4206 34.0231C98.2458 33.9492 98.0508 33.9155 97.8356 33.9155C97.3784 33.9155 97.0153 34.05 96.7464 34.319C96.4774 34.5879 96.316 34.9578 96.2488 35.4284H99.2275V35.4217Z" fill="black"/>
<path d="M103.161 30.8158V38.7366H102.206V30.8158H103.161Z" fill="black"/>
<path d="M107.921 33.2028C108.318 33.2028 108.675 33.2701 108.997 33.4045C109.32 33.539 109.589 33.7273 109.818 33.9693C110.046 34.2114 110.214 34.5073 110.335 34.8569C110.456 35.2066 110.517 35.5898 110.517 36.0134C110.517 36.437 110.456 36.8337 110.335 37.1767C110.214 37.5196 110.04 37.8154 109.818 38.0575C109.589 38.2996 109.32 38.4878 108.997 38.6223C108.681 38.7501 108.318 38.8173 107.921 38.8173C107.525 38.8173 107.162 38.7501 106.839 38.6223C106.516 38.4878 106.247 38.3063 106.019 38.0575C105.79 37.8154 105.622 37.5196 105.501 37.1767C105.38 36.8337 105.319 36.4438 105.319 36.0134C105.319 35.5831 105.38 35.1998 105.501 34.8569C105.622 34.514 105.797 34.2181 106.019 33.9693C106.247 33.7273 106.516 33.539 106.839 33.4045C107.162 33.2701 107.518 33.2028 107.921 33.2028ZM107.921 38.0642C108.459 38.0642 108.863 37.8827 109.125 37.5263C109.387 37.1699 109.522 36.6656 109.522 36.0202C109.522 35.3747 109.387 34.8636 109.125 34.5005C108.863 34.1374 108.459 33.9559 107.921 33.9559C107.646 33.9559 107.41 34.003 107.209 34.0971C107.007 34.1912 106.839 34.3257 106.704 34.5005C106.57 34.6754 106.469 34.8905 106.402 35.146C106.335 35.4015 106.301 35.6907 106.301 36.0134C106.301 36.6589 106.436 37.1632 106.704 37.5196C106.973 37.8827 107.377 38.0575 107.921 38.0575V38.0642Z" fill="black"/>
<path d="M116.434 34.2585C116.407 34.2988 116.38 34.3257 116.346 34.3526C116.32 34.3728 116.279 34.3862 116.225 34.3862C116.172 34.3862 116.111 34.3661 116.051 34.319C115.983 34.2719 115.909 34.2248 115.809 34.1711C115.708 34.1173 115.6 34.0702 115.459 34.0231C115.318 33.9761 115.15 33.9559 114.948 33.9559C114.679 33.9559 114.444 34.003 114.235 34.0971C114.033 34.1912 113.859 34.3324 113.724 34.5073C113.59 34.6821 113.482 34.904 113.415 35.1595C113.348 35.415 113.307 35.6974 113.307 36.0134C113.307 36.3294 113.348 36.6387 113.422 36.8943C113.495 37.1498 113.603 37.3649 113.744 37.5398C113.885 37.7146 114.047 37.8491 114.242 37.9365C114.437 38.0306 114.659 38.0709 114.901 38.0709C115.143 38.0709 115.324 38.044 115.479 37.9903C115.627 37.9365 115.755 37.8759 115.856 37.802C115.956 37.7347 116.037 37.6742 116.104 37.6137C116.172 37.5532 116.239 37.533 116.299 37.533C116.38 37.533 116.441 37.5599 116.481 37.6272L116.75 37.9768C116.629 38.1247 116.494 38.2525 116.346 38.3533C116.199 38.4609 116.037 38.5416 115.862 38.6156C115.687 38.6828 115.506 38.7366 115.318 38.7702C115.129 38.8039 114.934 38.8173 114.739 38.8173C114.397 38.8173 114.08 38.7568 113.791 38.629C113.502 38.5013 113.247 38.3197 113.032 38.0844C112.816 37.8491 112.648 37.5532 112.527 37.2036C112.406 36.8539 112.346 36.4572 112.346 36.0134C112.346 35.61 112.399 35.2334 112.514 34.8905C112.628 34.5476 112.789 34.2517 113.011 34.003C113.227 33.7542 113.495 33.5592 113.812 33.418C114.128 33.2768 114.491 33.2095 114.908 33.2095C115.291 33.2095 115.627 33.27 115.923 33.3978C116.219 33.5256 116.474 33.6937 116.703 33.9223L116.447 34.2652L116.434 34.2585Z" fill="black"/>
<path d="M119.91 31.5756C119.91 31.6698 119.89 31.7572 119.856 31.8379C119.816 31.9185 119.769 31.9925 119.709 32.053C119.648 32.1135 119.574 32.1673 119.487 32.2009C119.406 32.2346 119.312 32.2547 119.218 32.2547C119.124 32.2547 119.036 32.2346 118.955 32.2009C118.875 32.1673 118.808 32.1135 118.74 32.053C118.68 31.9925 118.633 31.9185 118.592 31.8379C118.559 31.7572 118.539 31.6698 118.539 31.5756C118.539 31.4815 118.559 31.3941 118.592 31.3067C118.626 31.226 118.673 31.152 118.74 31.0848C118.801 31.0243 118.875 30.9705 118.955 30.9368C119.036 30.9032 119.124 30.8831 119.218 30.8831C119.312 30.8831 119.399 30.9032 119.487 30.9368C119.567 30.9705 119.641 31.0243 119.709 31.0848C119.769 31.1453 119.823 31.2193 119.856 31.3067C119.897 31.3874 119.91 31.4815 119.91 31.5756ZM119.709 33.2835V38.7299H118.754V33.2835H119.709Z" fill="black"/>
<path d="M123.864 38.824C123.434 38.824 123.104 38.703 122.869 38.4609C122.64 38.2189 122.519 37.8759 122.519 37.4254V34.0904H121.86C121.8 34.0904 121.753 34.0702 121.712 34.0366C121.672 34.0029 121.652 33.9492 121.652 33.8752V33.4919L122.546 33.3776L122.768 31.6966C122.781 31.6428 122.802 31.5958 122.842 31.5622C122.882 31.5285 122.929 31.5084 122.99 31.5084H123.474V33.3843H125.047V34.0769H123.474V37.3447C123.474 37.5734 123.528 37.7415 123.642 37.8558C123.756 37.9701 123.898 38.0239 124.072 38.0239C124.173 38.0239 124.261 38.0104 124.335 37.9835C124.409 37.9566 124.469 37.9297 124.523 37.8961C124.577 37.8625 124.624 37.8356 124.657 37.8087C124.698 37.7818 124.731 37.7683 124.758 37.7683C124.805 37.7683 124.852 37.7952 124.893 37.8625L125.175 38.3197C125.007 38.4744 124.812 38.5954 124.577 38.6828C124.341 38.7702 124.106 38.8173 123.857 38.8173L123.864 38.824Z" fill="black"/>
<path d="M131.664 33.2902L128.624 40.3504C128.591 40.4243 128.55 40.4781 128.503 40.5252C128.456 40.5655 128.382 40.5924 128.282 40.5924H127.569L128.564 38.4273L126.318 33.2969H127.145C127.226 33.2969 127.293 33.3171 127.34 33.3575C127.387 33.3978 127.421 33.4449 127.441 33.4919L128.9 36.9212C128.954 37.0691 129.008 37.2305 129.048 37.3918C129.102 37.2237 129.156 37.0624 129.209 36.9144L130.621 33.4852C130.642 33.4247 130.682 33.3776 130.729 33.344C130.783 33.3037 130.837 33.2902 130.904 33.2902H131.664Z" fill="black"/>
</svg>
