<svg width="14" height="18" viewBox="0 0 14 18" fill="none" xmlns="http://www.w3.org/2000/svg">
<path d="M9.26 5.85998V4.17998C9.26 3.49998 8.99 2.83998 8.5 2.35998C8.03 1.86998 7.37 1.58998 6.68 1.59998C6 1.59998 5.34 1.86998 4.86 2.35998C4.37 2.82998 4.09 3.48998 4.1 4.17998V5.85998H9.26ZM5.51 12.85C5.81 13.17 6.24 13.36 6.68 13.36C7.12 13.36 7.55 13.18 7.85 12.85C8.17 12.55 8.36 12.12 8.36 11.68C8.36 11.24 8.18 10.81 7.85 10.51C7.55 10.19 7.12 9.99998 6.68 9.99998C6.24 9.99998 5.81 10.18 5.51 10.51C5.19 10.81 5 11.24 5 11.68C5 12.12 5.18 12.55 5.51 12.85ZM11.68 5.85998C12.12 5.85998 12.54 6.02998 12.85 6.34998C13.18 6.63998 13.36 7.05998 13.36 7.49998V15.86C13.36 16.3 13.18 16.72 12.85 17.01C12.54 17.32 12.12 17.5 11.68 17.5H1.68C1.24 17.5 0.82 17.33 0.51 17.01C0.18 16.72 0 16.3 0 15.86V7.49998C0 7.05998 0.18 6.63998 0.51 6.34998C0.82 6.03998 1.24 5.85998 1.68 5.85998H2.5V4.17998C2.49 3.06998 2.93 1.99998 3.73 1.22998C4.5 0.429984 5.57 -0.0100163 6.68 -1.63152e-05C7.79 -0.0100163 8.86 0.429984 9.63 1.22998C10.43 1.99998 10.88 3.06998 10.86 4.17998V5.85998H11.68Z" fill="#5A676F"/>
</svg>
