<svg width="20" height="20" viewBox="0 0 20 20" fill="none" xmlns="http://www.w3.org/2000/svg">
<path d="M10.8215 20H9.18036C9.14301 19.9921 9.10567 19.9804 9.06636 19.9764C7.53727 19.8391 6.09466 19.3995 4.80732 18.5674C1.38358 16.3576 -0.230022 13.2097 0.0254816 9.13354C0.11589 7.71072 0.544349 6.37817 1.246 5.13982C3.40205 1.33843 7.60213 -0.671185 11.8926 0.202135C15.8726 1.01265 18.4492 3.4658 19.6599 7.33981C19.8486 7.9423 19.9252 8.5703 20.0019 9.19438V10.8331C19.9508 11.1922 19.9233 11.5573 19.8427 11.9105C18.9563 15.8355 16.5919 18.4123 12.7535 19.6369C12.1265 19.8371 11.474 19.9195 10.8215 19.998V20ZM18.7932 9.64576C18.7912 9.20616 18.7303 8.77637 18.6458 8.34854C17.8164 4.08792 13.9583 1.02247 9.59702 1.23834C8.42367 1.29722 7.30929 1.56608 6.24797 2.06456C3.10724 3.54037 1.05142 6.82366 1.21259 10.3326C1.26762 11.518 1.52705 12.6445 2.02234 13.7199C2.33091 14.3892 2.72595 15.0093 3.19569 15.5784C3.2232 15.6118 3.24679 15.6648 3.29789 15.6609C3.36471 15.655 3.35685 15.5843 3.37847 15.5412C3.39419 15.5058 3.40009 15.4666 3.41188 15.4293C3.88161 13.924 4.76212 12.7191 6.04946 11.8085C6.47595 11.5062 6.93193 11.257 7.41738 11.0647C7.54317 11.0156 7.58051 10.9606 7.4508 10.8704C7.42328 10.8527 7.39773 10.8311 7.37415 10.8115C6.06322 9.70267 5.52666 8.29555 5.8765 6.6176C6.33248 4.43528 8.36471 3.04582 10.5856 3.33235C12.5943 3.5914 14.1941 5.35374 14.2275 7.36924C14.2511 8.79207 13.7008 9.9578 12.5825 10.8488C12.4252 10.9744 12.4272 10.9881 12.6159 11.0686C14.6285 11.9399 15.9649 13.4197 16.6155 15.5117C16.6312 15.5647 16.6293 15.6432 16.6921 15.6589C16.7609 15.6766 16.7865 15.602 16.8219 15.5588C18.2153 13.8338 18.8541 11.8575 18.7912 9.64772L18.7932 9.64576ZM9.93114 11.779C9.64223 11.7594 9.28649 11.8065 8.93664 11.8752C6.60174 12.3266 4.80339 14.1811 4.40048 16.5381C4.37297 16.6971 4.41031 16.8031 4.54396 16.9051C6.46809 18.3927 8.63987 19.005 11.0534 18.7342C12.6198 18.5595 14.0251 17.9668 15.2967 17.0366C15.5837 16.8266 15.6348 16.6225 15.566 16.3007C15.0019 13.6532 12.7024 11.779 9.92918 11.779H9.93114ZM13.005 7.51839C13.0424 6.02099 11.8435 4.50004 9.99796 4.50397C8.13672 4.50789 6.98892 6.03669 6.99679 7.48896C7.00465 9.15513 8.31951 10.5034 9.98028 10.5112C11.6627 10.5191 13.0031 9.19438 13.007 7.51839H13.005Z" fill="black"/>
</svg>
