<svg width="22" height="22" viewBox="0 0 22 22" fill="none" xmlns="http://www.w3.org/2000/svg">
<path d="M4.84615 1H2.53846C2.13044 1 1.73912 1.16209 1.4506 1.4506C1.16209 1.73912 1 2.13044 1 2.53846V4.84615M17.1538 1H19.4615C19.8696 1 20.2609 1.16209 20.5494 1.4506C20.8379 1.73912 21 2.13044 21 2.53846V4.84615M4.84615 21H2.53846C2.13044 21 1.73912 20.8379 1.4506 20.5494C1.16209 20.2609 1 19.8696 1 19.4615V17.1538M17.1538 21H19.4615C19.8696 21 20.2609 20.8379 20.5494 20.5494C20.8379 20.2609 21 19.8696 21 19.4615V17.1538M4.84609 14.8462V17.1539H7.15378M10.9999 17.1539V14.8462H8.69218M17.154 7.15384H14.8463V4.84615M17.154 12.5385V10.2308H14.8463M14.8463 14.8462V17.1539H17.154M6.38455 4.84615H9.46148C10.3111 4.84615 10.9999 5.53494 10.9999 6.38461V9.46153C10.9999 10.3112 10.3111 11 9.46148 11H6.38455C5.53488 11 4.84609 10.3112 4.84609 9.46153V6.38461C4.84609 5.53494 5.53488 4.84615 6.38455 4.84615Z" stroke="black" stroke-width="1.5" stroke-linecap="round" stroke-linejoin="round"/>
</svg>
