<svg width="16" height="16" viewBox="0 0 16 16" fill="none" xmlns="http://www.w3.org/2000/svg">
<path d="M7.96094 5.81494V9.02923" stroke="white" stroke-width="1.5" stroke-linecap="round" stroke-linejoin="round"/>
<path d="M7.96101 12.7794C8.25687 12.7794 8.49672 12.5396 8.49672 12.2437C8.49672 11.9479 8.25687 11.708 7.96101 11.708C7.66514 11.708 7.42529 11.9479 7.42529 12.2437C7.42529 12.5396 7.66514 12.7794 7.96101 12.7794Z" stroke="white" stroke-width="1.5" stroke-linecap="round" stroke-linejoin="round"/>
<path d="M8.91461 1.5829C8.8247 1.4074 8.6881 1.26011 8.51985 1.15727C8.3516 1.05442 8.15824 1 7.96104 1C7.76385 1 7.57048 1.05442 7.40223 1.15727C7.23399 1.26011 7.09738 1.4074 7.00747 1.5829L1.11461 13.3686C1.03243 13.5317 0.993295 13.7131 1.00094 13.8956C1.00858 14.0781 1.06275 14.2556 1.15829 14.4112C1.25383 14.5669 1.38758 14.6955 1.54683 14.785C1.70608 14.8744 1.88555 14.9216 2.06819 14.9222H13.8539C14.0365 14.9216 14.216 14.8744 14.3753 14.785C14.5345 14.6955 14.6683 14.5669 14.7638 14.4112C14.8593 14.2556 14.9135 14.0781 14.9211 13.8956C14.9288 13.7131 14.8897 13.5317 14.8075 13.3686L8.91461 1.5829Z" stroke="white" stroke-width="1.5" stroke-linecap="round" stroke-linejoin="round"/>
</svg>
