<svg width="16" height="20" viewBox="0 0 16 20" fill="none" xmlns="http://www.w3.org/2000/svg">
<path d="M8.0553 6.36563C8.0553 6.11799 8.25601 5.91728 8.50364 5.91728H8.61065C8.85828 5.91728 9.05899 6.11799 9.05899 6.36563C9.05899 6.61326 8.85828 6.81397 8.61065 6.81397H8.50364C8.25606 6.81397 8.0553 6.61326 8.0553 6.36563ZM15.2408 19.6744C15.2257 19.7277 15.2009 19.777 15.1685 19.8203C15.1301 19.8718 15.0821 19.913 15.0287 19.9429C14.9745 19.9733 14.9134 19.9928 14.8482 19.9984C14.8352 19.9995 2.05517 20 2.05517 20C0.92195 20 0 19.078 0 17.9448V1.94602C0 0.872981 0.872981 9.17544e-09 1.94607 9.17544e-09H13.3117C13.8297 -4.98071e-05 14.3179 0.202752 14.6863 0.571194C15.0548 0.939635 15.2578 1.42788 15.2578 1.94607V16.3301C15.2581 16.3459 15.2575 16.3617 15.2561 16.3773C15.2506 16.4417 15.2313 16.5022 15.2013 16.556C15.1713 16.6101 15.1296 16.6587 15.0773 16.6976C15.0652 16.7066 15.0528 16.7149 15.0399 16.7226C14.654 16.9645 14.4144 17.4322 14.4144 17.9448C14.4144 18.4574 14.6539 18.925 15.0399 19.1669C15.0529 19.1747 15.0654 19.1832 15.0775 19.1922C15.0775 19.1922 15.0776 19.1923 15.0775 19.1922C15.1297 19.231 15.1716 19.2798 15.2015 19.3339C15.2313 19.3875 15.2504 19.4477 15.2561 19.5119C15.2609 19.5659 15.256 19.6209 15.2408 19.6744ZM1.85611 17.9448C1.85611 17.6971 2.05682 17.4964 2.30445 17.4964H13.5582C13.6041 17.2447 13.688 17.0048 13.805 16.7863H2.05517C1.41638 16.7863 0.896693 17.306 0.896693 17.9448C0.896693 18.5836 1.41638 19.1033 2.05517 19.1033H13.805C13.6881 18.8848 13.6041 18.6448 13.5582 18.3931H2.30445C2.05682 18.3931 1.85611 18.1924 1.85611 17.9448ZM14.3611 1.94602C14.3611 1.6674 14.2515 1.40437 14.0524 1.20531C13.8533 1.00624 13.5903 0.896644 13.3119 0.896693H1.94607C1.36746 0.896693 0.896693 1.36741 0.896693 1.94602V16.248C1.22673 16.022 1.6258 15.8896 2.05517 15.8896H14.3611L14.3611 1.94602ZM11.0623 10.0401C10.8277 9.96062 10.5733 10.0869 10.4941 10.3214C10.4148 10.556 10.5408 10.8104 10.7754 10.8896C11.0189 10.9718 11.1825 11.1988 11.1825 11.4543C11.1825 11.7827 10.9154 12.0499 10.587 12.0499H6.52753C6.19914 12.0499 5.93198 11.7827 5.93198 11.4543C5.93198 11.1988 6.09562 10.9718 6.33917 10.8895C6.57376 10.8103 6.69969 10.5559 6.62044 10.3213C6.54118 10.0867 6.28672 9.96087 6.05218 10.04C5.44397 10.2455 5.03528 10.8138 5.03528 11.4543C5.03528 12.2771 5.70471 12.9466 6.52753 12.9466H10.587C11.4098 12.9466 12.0792 12.2771 12.0792 11.4543C12.0792 10.8139 11.6706 10.2456 11.0623 10.0401ZM2.16382 1.5175C1.91618 1.5175 1.71547 1.71821 1.71547 1.96585V14.8204C1.71547 15.068 1.91618 15.2687 2.16382 15.2687C2.41146 15.2687 2.61217 15.068 2.61217 14.8204V1.96585C2.61217 1.71821 2.41146 1.5175 2.16382 1.5175ZM7.32539 9.68344C6.52648 8.11338 6.03136 7.01075 6.03136 6.36558C6.03136 4.97286 7.16448 3.83979 8.55724 3.83979C9.95001 3.83979 11.0831 4.97286 11.0831 6.36558C11.0831 7.01075 10.588 8.11338 9.78915 9.68339C9.78915 9.68339 9.50346 10.2473 9.48921 10.2773C9.37393 10.519 9.15932 10.969 8.55724 10.969C7.95511 10.969 7.74056 10.5191 7.62533 10.2773C7.61103 10.2474 7.32539 9.68344 7.32539 9.68344ZM6.92805 6.36558C6.92805 6.92531 7.76651 8.57309 8.12454 9.27674C8.12454 9.27674 8.41756 9.85541 8.4347 9.89133C8.46339 9.9515 8.50573 10.0402 8.53129 10.0708C8.542 10.0722 8.57249 10.0722 8.5831 10.0708C8.60876 10.0403 8.65105 9.95145 8.67979 9.89123C8.69688 9.85536 8.98995 9.27669 8.98995 9.27669C9.34798 8.57309 10.1864 6.92531 10.1864 6.36553C10.1864 5.46724 9.45553 4.73643 8.55724 4.73643C7.65891 4.73648 6.92805 5.46729 6.92805 6.36558Z" fill="white"/>
</svg>
