<svg width="22" height="22" viewBox="0 0 22 22" fill="none" xmlns="http://www.w3.org/2000/svg">
<path d="M7.38867 9.25003L14.1087 5.87503M7.38867 12.25L14.1087 15.625M7.75 10.75C7.75 12.6139 6.23896 14.125 4.375 14.125C2.51104 14.125 1 12.6139 1 10.75C1 8.88601 2.51104 7.37497 4.375 7.37497C6.23896 7.37497 7.75 8.88601 7.75 10.75ZM20.5 17.1249C20.5 18.9889 18.989 20.4999 17.125 20.4999C15.261 20.4999 13.75 18.9889 13.75 17.1249C13.75 15.261 15.261 13.7499 17.125 13.7499C18.989 13.7499 20.5 15.261 20.5 17.1249ZM20.5 4.375C20.5 6.23896 18.989 7.75 17.125 7.75C15.261 7.75 13.75 6.23896 13.75 4.375C13.75 2.51104 15.261 1 17.125 1C18.989 1 20.5 2.51104 20.5 4.375Z" stroke="white" stroke-width="2" stroke-linecap="round" stroke-linejoin="round"/>
</svg>
