<svg width="20" height="20" viewBox="0 0 20 20" fill="none" xmlns="http://www.w3.org/2000/svg">
<path d="M16.4285 10.6429V8.07149C16.4285 7.73049 16.2931 7.40347 16.052 7.16235C15.8108 6.92123 15.4838 6.78577 15.1428 6.78577H2.92854C2.58754 6.78577 2.26052 6.92123 2.0194 7.16235C1.77828 7.40347 1.64282 7.73049 1.64282 8.07149V17.0715C1.64282 17.4125 1.77828 17.7395 2.0194 17.9806C2.26052 18.2217 2.58754 18.3572 2.92854 18.3572H15.1428C15.4838 18.3572 15.8108 18.2217 16.052 17.9806C16.2931 17.7395 16.4285 17.4125 16.4285 17.0715V13.8572M5.93711 3.57149L13.2271 1.66863C13.309 1.64555 13.3948 1.6393 13.4792 1.65028C13.5636 1.66125 13.6449 1.6892 13.7182 1.73246C13.7915 1.77572 13.8552 1.83337 13.9056 1.90195C13.956 1.97054 13.992 2.04862 14.0114 2.13149L14.3714 3.57149M14.5 10.6429H17.7143C18.0693 10.6429 18.3571 10.9307 18.3571 11.2858V13.2143C18.3571 13.5694 18.0693 13.8572 17.7143 13.8572H14.5C14.1449 13.8572 13.8571 13.5694 13.8571 13.2143V11.2858C13.8571 10.9307 14.1449 10.6429 14.5 10.6429Z" stroke="white" stroke-width="1.5" stroke-linecap="round" stroke-linejoin="round"/>
</svg>
